<?xml version="1.0" encoding="utf-8"?>
<!-- Generator: Adobe Illustrator 26.3.1, SVG Export Plug-In . SVG Version: 6.00 Build 0)  -->
<svg version="1.1" id="Слой_1" xmlns="http://www.w3.org/2000/svg" xmlns:xlink="http://www.w3.org/1999/xlink" x="0px" y="0px"
	 viewBox="0 0 15 14" style="enable-background:new 0 0 15 14;" xml:space="preserve">
<path d="M14.6,4.8c0-1.1-0.4-2-1.1-2.8l0,0l-0.1-0.1c0,0,0,0,0,0l-0.2-0.2l0,0c-0.7-0.6-1.6-1-2.6-1S8.7,1,8,1.6l0,0L7.4,2.2
	L6.8,1.6l0,0c-0.7-0.6-1.6-1-2.6-1S2.4,1,1.7,1.6l0,0L1.3,2l0,0C0.6,2.7,0.2,3.7,0.2,4.8c0,1.1,0.4,2,1.1,2.8l0,0l0.4,0.4l0,0
	l0.6,0.6l0,0L7,13.3h0l0.4,0.4l6-6c0,0,0,0,0,0l0.1-0.1l0,0C14.2,6.8,14.6,5.8,14.6,4.8z M7.4,12.3L3,7.9l0,0l-1-1
	C1.4,6.3,1.1,5.6,1.1,4.8S1.4,3.2,2,2.6C2.6,2,3.4,1.7,4.2,1.7c0.8,0,1.6,0.3,2.2,0.9l0.9,0.9l0.1-0.1v0l0.9-0.9
	C8.9,2,9.7,1.7,10.6,1.7c0.8,0,1.6,0.3,2.2,0.9c0.6,0.6,0.9,1.3,0.9,2.1s-0.3,1.6-0.9,2.1L7.4,12.3z"/>
</svg>
