<svg width="34" height="34" viewBox="0 0 34 34" fill="none" xmlns="http://www.w3.org/2000/svg">
    <path d="M25.8674 10.4131L26.2209 10.0595L25.8674 10.4131ZM17.984 10.4131L17.6305 10.0595L17.6305 10.0595L17.984 10.4131ZM16.999 11.3981L16.6455 11.7516L16.999 12.1052L17.3526 11.7516L16.999 11.3981ZM16.014 10.4131L16.3676 10.0595L16.014 10.4131ZM9.11568 19.2814L9.46923 19.635L9.82278 19.2814L9.46923 18.9279L9.11568 19.2814ZM9.11527 19.2818L8.76172 18.9283L8.40816 19.2818L8.76172 19.6354L9.11527 19.2818ZM16.9986 27.1652L16.6451 27.5187L16.9986 27.8723L17.3522 27.5187L16.9986 27.1652ZM16.999 27.1648L17.3526 26.8112L16.999 26.4577L16.6455 26.8112L16.999 27.1648ZM16.9994 27.1652L16.6459 27.5187L16.9994 27.8723L17.353 27.5187L16.9994 27.1652ZM24.8828 19.2818L25.2363 19.6354L25.5899 19.2818L25.2363 18.9283L24.8828 19.2818ZM24.8824 19.2814L24.5288 18.9279L24.1753 19.2814L24.5288 19.635L24.8824 19.2814ZM25.5138 10.7666C27.4955 12.7483 27.4955 15.9612 25.5138 17.9429L26.2209 18.65C28.5931 16.2778 28.5931 12.4317 26.2209 10.0595L25.5138 10.7666ZM18.3376 10.7666C20.3193 8.78496 23.5322 8.78495 25.5138 10.7666L26.2209 10.0595C23.8488 7.68732 20.0027 7.68732 17.6305 10.0595L18.3376 10.7666ZM17.3526 11.7516L18.3376 10.7666L17.6305 10.0595L16.6455 11.0445L17.3526 11.7516ZM15.6605 10.7666L16.6455 11.7516L17.3526 11.0445L16.3676 10.0595L15.6605 10.7666ZM8.48421 10.7666C10.4659 8.78495 13.6788 8.78495 15.6605 10.7666L16.3676 10.0595C13.9954 7.68732 10.1493 7.68732 7.77711 10.0595L8.48421 10.7666ZM8.48422 17.9429C6.50255 15.9612 6.50255 12.7483 8.48421 10.7666L7.77711 10.0595C5.40492 12.4317 5.40492 16.2778 7.77711 18.65L8.48422 17.9429ZM9.46923 18.9279L8.48422 17.9429L7.77711 18.65L8.76212 19.635L9.46923 18.9279ZM9.46882 19.6354L9.46923 19.635L8.76212 18.9279L8.76172 18.9283L9.46882 19.6354ZM17.3522 26.8116L9.46882 18.9283L8.76172 19.6354L16.6451 27.5187L17.3522 26.8116ZM16.6455 26.8112L16.6451 26.8116L17.3522 27.5187L17.3526 27.5183L16.6455 26.8112ZM17.353 26.8116L17.3526 26.8112L16.6455 27.5183L16.6459 27.5187L17.353 26.8116ZM24.5292 18.9283L16.6459 26.8116L17.353 27.5187L25.2363 19.6354L24.5292 18.9283ZM24.5288 19.635L24.5292 19.6354L25.2363 18.9283L25.2359 18.9279L24.5288 19.635ZM25.5138 17.9429L24.5288 18.9279L25.2359 19.635L26.2209 18.65L25.5138 17.9429Z"
          fill="currentColor"/>
</svg>
