<svg width="15" height="14" viewBox="0 0 15 14" fill="none" xmlns="http://www.w3.org/2000/svg">
<path d="M13.1849 1.67316L13.3101 1.44477L13.1849 1.67316ZM13.1849 6.91035L13.3101 7.13873L13.1849 6.91035ZM7.94775 1.67316L7.82258 1.44477L7.94775 1.67316ZM7.29382 2.32709L7.16865 2.55548L7.29382 2.68065L7.41899 2.55548L7.29382 2.32709ZM6.63893 1.67221L6.7641 1.44383L6.63893 1.67221ZM1.40172 1.67221L1.27655 1.44383L1.40172 1.67221ZM1.40172 6.90941L1.52689 6.68103L1.40172 6.90941ZM2.05663 7.56431L2.18175 7.79274L2.41024 7.56437L2.1818 7.33593L2.05663 7.56431ZM2.05594 7.56499L1.93081 7.33657L1.70233 7.56493L1.93077 7.79338L2.05594 7.56499ZM7.29311 12.8022L7.16794 13.0306L7.29311 13.1557L7.41828 13.0306L7.29311 12.8022ZM13.0597 1.90154C13.7382 2.58002 14.0592 3.44815 14.0592 4.29175C14.0592 5.13536 13.7382 6.00348 13.0597 6.68196L13.3101 7.13873C14.0778 6.371 14.4799 5.34364 14.4799 4.29175C14.4799 3.23987 14.0778 2.2125 13.3101 1.44477L13.0597 1.90154ZM8.07292 1.90154C8.75366 1.2208 9.65537 0.872657 10.5663 0.872657C11.4773 0.872657 12.379 1.2208 13.0597 1.90154L13.3101 1.44477C12.5446 0.679302 11.5508 0.304341 10.5663 0.304341C9.58182 0.304342 8.58805 0.679302 7.82258 1.44477L8.07292 1.90154ZM7.41899 2.55548L8.07292 1.90154L7.82258 1.44477L7.16865 2.09871L7.41899 2.55548ZM6.51376 1.9006L7.16865 2.55548L7.41899 2.09871L6.7641 1.44383L6.51376 1.9006ZM1.52689 1.9006C2.20763 1.21986 3.10935 0.871712 4.02033 0.871712C4.9313 0.871712 5.83302 1.21986 6.51376 1.9006L6.7641 1.44383C5.99863 0.678358 5.00485 0.303397 4.02033 0.303397C3.0358 0.303397 2.04203 0.678357 1.27655 1.44383L1.52689 1.9006ZM1.52689 6.68103C0.848406 6.00254 0.527429 5.13442 0.527428 4.29081C0.527427 3.44721 0.848404 2.57908 1.52689 1.9006L1.27655 1.44383C0.508822 2.21156 0.106692 3.23892 0.106693 4.29081C0.106694 5.3427 0.508825 6.37007 1.27655 7.13779L1.52689 6.68103ZM2.1818 7.33593L1.52689 6.68103L1.27655 7.13779L1.93145 7.79269L2.1818 7.33593ZM2.18107 7.79342L2.18175 7.79274L1.9315 7.33588L1.93081 7.33657L2.18107 7.79342ZM7.41828 12.5738L2.18111 7.33661L1.93077 7.79338L7.16794 13.0306L7.41828 12.5738ZM13.0597 6.68196L7.16794 12.5738L7.41828 13.0306L13.3101 7.13873L13.0597 6.68196Z" fill="black"/>
</svg>
