<?xml version="1.0" encoding="utf-8"?>
<!-- Generator: Adobe Illustrator 26.0.3, SVG Export Plug-In . SVG Version: 6.00 Build 0)  -->
<svg version="1.1" id="Слой_1" xmlns="http://www.w3.org/2000/svg" xmlns:xlink="http://www.w3.org/1999/xlink" x="0px" y="0px"
	 viewBox="0 0 15 14" style="enable-background:new 0 0 15 14;" xml:space="preserve">
<path d="M13.3,1.7c-0.8-0.8-1.8-1.1-2.7-1.1c-1,0-2,0.4-2.7,1.1L7.3,2.2L6.8,1.7C6,0.9,5,0.6,4,0.6S2,0.9,1.3,1.7
	C0.5,2.5,0.1,3.5,0.1,4.5c0,1.1,0.4,2.1,1.2,2.8l0.4,0.4l0,0L1.9,8l5.2,5.2l0.1,0.1l0.1-0.1l-0.1-0.2l0,0l0.1,0.2l5.9-5.9
	c0.8-0.8,1.2-1.8,1.2-2.8C14.5,3.5,14.1,2.5,13.3,1.7z M13.1,6.9l-5.8,5.8L2.4,7.8l0,0L2.2,7.6l0,0l0,0l0,0L1.5,6.9
	c-0.7-0.7-1-1.5-1-2.4c0-0.8,0.3-1.7,1-2.4c0.7-0.7,1.6-1,2.5-1s1.8,0.3,2.5,1l0.7,0.7l0.1,0.1l0.1-0.1l0.7-0.7c0.7-0.7,1.6-1,2.5-1
	c0.9,0,1.8,0.3,2.5,1c0.7,0.7,1,1.5,1,2.4S13.7,6.3,13.1,6.9z"/>
</svg>
