<?xml version="1.0" encoding="utf-8"?>
<!-- Generator: Adobe Illustrator 26.0.3, SVG Export Plug-In . SVG Version: 6.00 Build 0)  -->
<svg version="1.1" id="Слой_1" xmlns="http://www.w3.org/2000/svg" xmlns:xlink="http://www.w3.org/1999/xlink" x="0px" y="0px"
	 viewBox="0 0 19 19" style="enable-background:new 0 0 19 19;" xml:space="preserve">
<g>
	<g>
		<path d="M9.5,14.2c-0.3,0-0.5-0.2-0.5-0.5V8.3C9,8,9.2,7.8,9.5,7.8S10,8,10,8.3v5.3C10,13.9,9.8,14.2,9.5,14.2z M9.5,6.4
			C9.2,6.4,9,6.2,9,5.9V4.8c0-0.3,0.2-0.5,0.5-0.5S10,4.5,10,4.8v1.2C10,6.2,9.8,6.4,9.5,6.4z"/>
	</g>
	<g>
		<path d="M9.5,18.3c-4.9,0-8.8-4-8.8-8.8s4-8.8,8.8-8.8s8.8,4,8.8,8.8S14.4,18.3,9.5,18.3z M9.5,1.7c-4.3,0-7.8,3.5-7.8,7.8
			s3.5,7.8,7.8,7.8s7.8-3.5,7.8-7.8S13.8,1.7,9.5,1.7z"/>
	</g>
</g>
</svg>
