<svg version="1.1" xmlns="http://www.w3.org/2000/svg" xmlns:xlink="http://www.w3.org/1999/xlink" x="0px"
     y="0px"
     viewBox="0 0 38 38" style="enable-background:new 0 0 38 38;" xml:space="preserve">
	<path d="M19,37.5C8.8,37.5,0.5,29.2,0.5,19S8.8,0.5,19,0.5S37.5,8.8,37.5,19S29.2,37.5,19,37.5z M19,1.5C9.4,1.5,1.5,9.4,1.5,19
		S9.4,36.5,19,36.5S36.5,28.6,36.5,19S28.7,1.5,19,1.5z" fill="currentColor"/>
    <path fill="currentColor" class="st2" d="M19,9.4c-2.6,0-2.9,0-4,0.1c-1,0-1.7,0.2-2.3,0.4c-0.6,0.2-1.2,0.6-1.7,1.1c-0.5,0.5-0.9,1.1-1.1,1.7
			C9.7,13.3,9.5,14,9.5,15c0,1-0.1,1.4-0.1,4c0,2.6,0,2.9,0.1,4c0,1,0.2,1.7,0.4,2.3c0.2,0.6,0.6,1.2,1.1,1.7
			c0.5,0.5,1.1,0.9,1.7,1.1c0.6,0.2,1.3,0.4,2.3,0.4c1,0,1.4,0.1,4,0.1c2.6,0,2.9,0,4-0.1c1,0,1.7-0.2,2.3-0.4
			c0.6-0.2,1.2-0.6,1.7-1.1c0.5-0.5,0.9-1.1,1.1-1.7c0.2-0.6,0.4-1.3,0.4-2.3c0-1,0.1-1.4,0.1-4c0-2.6,0-2.9-0.1-4
			c0-1-0.2-1.7-0.4-2.3c-0.2-0.6-0.6-1.2-1.1-1.7c-0.5-0.5-1.1-0.9-1.7-1.1C24.7,9.7,24,9.5,23,9.5C21.9,9.4,21.6,9.4,19,9.4L19,9.4
			z M18.1,11.1c0.3,0,0.5,0,0.9,0c2.6,0,2.9,0,3.9,0.1c0.9,0,1.4,0.2,1.8,0.3c0.4,0.2,0.8,0.4,1.1,0.7c0.3,0.3,0.5,0.7,0.7,1.1
			c0.1,0.3,0.3,0.8,0.3,1.8c0,1,0.1,1.3,0.1,3.9s0,2.9-0.1,3.9c0,0.9-0.2,1.4-0.3,1.8c-0.2,0.4-0.4,0.8-0.7,1.1
			c-0.3,0.3-0.7,0.5-1.1,0.7c-0.3,0.1-0.8,0.3-1.8,0.3c-1,0-1.3,0.1-3.9,0.1c-2.6,0-2.9,0-3.9-0.1c-0.9,0-1.4-0.2-1.8-0.3
			c-0.4-0.2-0.8-0.4-1.1-0.7c-0.3-0.3-0.5-0.7-0.7-1.1c-0.1-0.3-0.3-0.8-0.3-1.8c0-1-0.1-1.3-0.1-3.9s0-2.9,0.1-3.9
			c0-0.9,0.2-1.4,0.3-1.8c0.2-0.4,0.4-0.8,0.7-1.1c0.3-0.3,0.7-0.5,1.1-0.7c0.3-0.1,0.8-0.3,1.8-0.3C16,11.1,16.4,11.1,18.1,11.1
			L18.1,11.1z M24.1,12.7c-0.6,0-1.2,0.5-1.2,1.2c0,0.6,0.5,1.2,1.2,1.2c0.6,0,1.2-0.5,1.2-1.2C25.3,13.2,24.8,12.7,24.1,12.7
			L24.1,12.7z M19,14.1c-2.7,0-4.9,2.2-4.9,4.9c0,2.7,2.2,4.9,4.9,4.9c2.7,0,4.9-2.2,4.9-4.9C23.9,16.3,21.7,14.1,19,14.1L19,14.1z
			 M19,15.8c1.8,0,3.2,1.4,3.2,3.2c0,1.8-1.4,3.2-3.2,3.2c-1.8,0-3.2-1.4-3.2-3.2C15.8,17.2,17.2,15.8,19,15.8z"/>
</svg>
