<svg width="169" height="144" viewBox="0 0 169 144" fill="none" xmlns="http://www.w3.org/2000/svg">
<rect x="1" y="1" width="167" height="142" stroke="#313131" stroke-width="2"/>
<path d="M127.117 101.213L126.876 101.26C125.621 101.502 124.851 100.966 124.066 99.9484C120.489 95.3254 116.806 90.7849 113.155 86.2179C112.997 86.0625 112.827 85.9195 112.647 85.7904V101.201H110.319V81.1202C111.392 80.902 112.2 81.0523 112.964 82.0577C116.753 86.9697 120.636 91.808 124.621 96.8408V81.1025H127.105L127.117 101.213Z" fill="#313131"/>
<path d="M118.658 56.1543C118.381 55.7887 118.276 55.5647 118.64 55.1666C119.957 53.7662 121.244 52.3392 122.532 50.9122C123.751 49.5648 124.959 48.2056 126.294 46.7166C125.453 46.7166 124.774 46.6813 124.101 46.7343C123.818 46.7712 123.557 46.9044 123.36 47.1117C120.157 50.5318 116.964 53.9608 113.781 57.3985C113.632 57.5578 113.452 57.6934 113.114 57.9882V46.7432H110.883V66.8775H113.147C113.147 65.0525 113.147 63.2805 113.147 61.5115C113.147 61.199 113.164 60.7774 113.355 60.5887C114.499 59.4476 115.692 58.3627 116.882 57.2334C117.018 57.3665 117.144 57.5084 117.262 57.658C119.282 60.3725 121.296 63.0899 123.305 65.8102C124.166 66.9748 125.195 67.2844 126.658 66.7625C124.001 63.2225 121.334 59.6865 118.658 56.1543Z" fill="#313131"/>
<path d="M97.7271 81.0703H99.9256V101.214H97.7271V81.0703Z" fill="#313131"/>
<path d="M89.3736 88.3818C88.7353 86.1124 87.9023 83.9028 86.884 81.7775C80.8585 69.129 74.7566 56.5159 68.6752 43.8911C68.0198 42.5348 67.3202 41.1963 66.5501 39.6602C66.5002 39.9874 66.4737 40.0936 66.4678 40.1997C66.2386 44.4601 65.9829 48.7205 65.7859 52.9838C65.5772 57.4594 65.3744 61.938 65.2657 66.4165C65.0981 73.3334 64.9718 80.2562 64.913 87.176C64.8983 89.3283 64.913 91.5425 65.3833 93.6299C66.8911 100.579 72.946 104.498 79.9532 103.253C86.5254 102.083 91.1724 94.8476 89.3736 88.3818ZM79.624 101.107C73.9512 102.26 68.5782 98.8633 67.4643 93.2407C67.0763 91.283 67.1439 89.2339 67.0498 87.2231C66.994 86.0202 67.091 84.8114 67.0028 83.6114C66.9469 82.833 67.3614 82.6532 67.9492 82.4969C70.5358 81.8188 73.1135 81.1112 75.706 80.4478C76.4085 80.2709 76.7876 80.0291 76.4026 79.2419C76.2635 78.8669 76.1582 78.4801 76.0881 78.0862L67.0087 80.5303C67.379 69.6627 67.7435 58.9071 68.108 48.1514L68.3343 48.1131C68.4564 48.293 68.5692 48.4789 68.6723 48.6704C74.2834 60.4255 79.915 72.1688 85.4732 83.9475C86.3134 85.6937 86.9515 87.5307 87.3749 89.4226C88.4918 94.6825 84.8471 100.046 79.624 101.107Z" fill="#313131"/>
<path d="M58.3466 54.2498C57.7353 51.1658 56.1216 48.7423 53.1177 47.5688C51.8419 47.0892 50.499 46.8136 49.1379 46.7521C46.7865 46.6224 44.4351 46.7167 42.0337 46.7167V66.7656C44.8583 66.7656 47.583 66.8629 50.2989 66.742C53.826 66.5798 56.8888 64.1091 57.9939 60.7214C58.67 58.6316 58.7915 56.4011 58.3466 54.2498ZM55.6014 59.9726C54.5873 63.2452 52.2741 64.5632 48.9998 64.7607C47.7153 64.8374 46.4191 64.746 45.1317 64.7872C44.4821 64.8079 44.3146 64.5573 44.3204 63.944C44.3469 61.5676 44.3204 59.1883 44.3204 56.8119C44.3204 55.6326 44.3204 54.4434 44.3204 53.2444C44.3204 52.0651 44.3204 50.868 44.3028 49.6798C44.3028 49.0577 44.4703 48.813 45.114 48.8572C47.1333 48.9988 49.2026 48.8572 51.1631 49.2759C54.1023 49.8921 55.9217 52.5987 56.0011 55.7269C56.057 57.1421 56.0158 58.6399 55.6014 59.9726Z" fill="#313131"/>
<path d="M100.866 59.2616C100.99 59.129 101.022 59.0612 101.072 59.0464C104.085 58.1206 105.416 54.9983 104.987 52.1738C104.788 50.6407 104.031 49.2354 102.862 48.2281C101.693 47.2207 100.194 46.6823 98.653 46.7164H90.5054V66.895H92.7892C92.7892 64.6984 92.8215 62.5962 92.7715 60.4911C92.7539 59.7216 93.0184 59.5064 93.7503 59.5358C94.9789 59.586 96.2134 59.586 97.442 59.5358C97.7066 59.5109 97.9723 59.5682 98.2032 59.7001C98.434 59.832 98.6188 60.032 98.7324 60.2729C100.005 62.3368 101.313 64.3712 102.624 66.4085C102.756 66.6149 102.971 66.8949 103.165 66.9097C103.953 66.9657 104.746 66.9333 105.681 66.9333L100.866 59.2616ZM99.2585 57.357C97.2216 57.413 95.1817 57.3894 93.1419 57.3894C93.0211 57.3674 92.9028 57.3329 92.7892 57.2862C92.7892 54.6534 92.7892 52.0676 92.7892 49.4849C92.7892 49.0102 92.9685 48.8539 93.427 48.8598C95.2876 48.8746 97.1481 48.8244 99.0116 48.8805C100.566 48.9276 101.845 50.1188 102.398 51.8848C102.971 53.7069 102.257 56.0125 100.769 56.8971C100.312 57.174 99.7924 57.3321 99.2585 57.357Z" fill="#313131"/>
<path d="M52.4034 93.5836C52.5357 93.4539 52.5709 93.389 52.6209 93.3743C55.6307 92.4426 56.9622 89.3291 56.5272 86.4987C56.329 84.981 55.5835 83.5887 54.4316 82.5848C53.2798 81.5809 51.8012 81.035 50.2754 81.0501H42.0454V101.199H44.3292C44.3292 99.0852 44.3821 97.0391 44.3057 95.0077C44.2704 94.0524 44.5996 93.8136 45.4814 93.8725C46.5577 93.9519 47.6383 93.9519 48.7146 93.8725C49.5641 93.8047 50.0138 94.1674 50.4312 94.8396C51.6421 96.8327 52.9031 98.7963 54.1728 100.754C54.3388 101.007 54.5956 101.187 54.89 101.255C55.5984 101.323 56.3185 101.279 57.2209 101.279L52.4034 93.5836ZM50.8015 91.6907C48.6823 91.7409 46.5601 91.7114 44.3351 91.7114C44.3351 88.9871 44.3351 86.4043 44.3351 83.8186C44.3351 83.3469 44.5115 83.1877 44.9729 83.1906C46.8305 83.2083 48.6911 83.1552 50.5575 83.2113C52.1124 83.2584 53.391 84.4496 53.9436 86.2156C54.5314 88.0407 53.8054 90.3433 52.3182 91.2279C51.8597 91.5081 51.3379 91.6673 50.8015 91.6907Z" fill="#313131"/>
</svg>
