<?xml version="1.0" encoding="utf-8"?>
<!-- Generator: Adobe Illustrator 26.0.3, SVG Export Plug-In . SVG Version: 6.00 Build 0)  -->
<svg version="1.1" id="Слой_1" xmlns="http://www.w3.org/2000/svg" xmlns:xlink="http://www.w3.org/1999/xlink" x="0px" y="0px"
	 viewBox="0 0 69 54" style="enable-background:new 0 0 69 54;" xml:space="preserve">
<path d="M37.8,41.1c-0.5-1.8-1.1-3.6-2-5.4c-3.8-8.3-7.7-16.8-11.7-24.9l-2.9-6.1c-0.5-1.1-1.7-3.4-1.8-3.5V0.9v0.3
	c0,0.1-0.4,7.5-0.6,10.9c-0.2,4-0.3,7.5-0.4,11c-0.2,6.5-0.2,11.8-0.3,17c0,1.7,0,3.5,0.4,5.3c1,5,4.9,8.1,9.7,8.1
	c0.6,0,1.4-0.1,2.1-0.2c2.6-0.5,4.9-2.1,6.4-4.5C38.1,46.4,38.5,43.6,37.8,41.1z M20.1,36.6l7.5-2.1h0.1l-0.5-1.9l-7.2,2l0.9-26.4
	c1.2,2.6,9.6,20.5,13.6,29.4c0.7,1.6,1.2,3,1.5,4.4c0.4,2,0,4.1-1.1,5.9c-1.2,1.8-3,3.1-4.9,3.5c-2.2,0.5-4.5,0-6.2-1.2
	c-1.8-1.1-3-3-3.4-5.2c-0.2-1.1-0.2-2.4-0.3-3.6c0-0.4,0-0.8-0.1-1.3C20,39.3,20.1,37,20.1,36.6z"/>
<path d="M0,23.6V7.1h5.6c1.8,0,3.2,0.4,4.3,1.1c1.1,0.7,2,1.7,2.6,3c0.6,1.2,0.9,2.6,0.9,4.2c0,1.6-0.3,3.1-1,4.4s-1.5,2.2-2.7,2.9
	c-1.2,0.7-2.6,1.1-4.2,1.1H0z M11.3,15.3c0-1.2-0.2-2.4-0.6-3.3c-0.5-1-1.1-1.7-1.9-2.3C7.8,9.1,6.8,8.9,5.6,8.9H2.1v12.8h3.5
	c1.3,0,2.3-0.2,3.1-0.8c0.9-0.6,1.5-1.3,1.9-2.3C11.1,17.6,11.3,16.5,11.3,15.3z"/>
<path d="M38.5,23.6V7.1h6.9c0.7,0,1.4,0.2,1.9,0.5c0.6,0.3,1.1,0.7,1.5,1.2c0.4,0.5,0.8,1.1,1,1.7c0.2,0.7,0.4,1.2,0.4,1.9
	c0,0.7-0.2,1.5-0.4,2.1c-0.3,0.7-0.6,1.2-1.2,1.7c-0.5,0.5-1.1,0.8-1.8,1l3.9,6.3h-2.3l-3.7-5.9h-4.2v5.9H38.5z M40.6,15.8h4.9
	c0.6,0,1-0.2,1.4-0.5s0.7-0.7,1-1.2c0.2-0.5,0.3-1.1,0.3-1.7c0-0.7-0.2-1.2-0.4-1.7c-0.2-0.5-0.6-0.9-1-1.2c-0.4-0.3-1-0.5-1.4-0.5
	h-4.7V15.8z"/>
<path d="M54.8,23.6V7.1h2.1v9.1L65.1,7h2.2l-6.5,7.3l6.8,9.3h-2.3l-5.8-8l-2.7,3v5.1H54.8z"/>
<path d="M0,51.7V35.1h6.9c0.7,0,1.4,0.2,1.9,0.5c0.6,0.3,1.1,0.7,1.5,1.2c0.4,0.5,0.8,1.1,1,1.7c0.2,0.7,0.4,1.2,0.4,1.9
	c0,0.7-0.2,1.5-0.4,2.1c-0.3,0.7-0.6,1.2-1.2,1.7c-0.5,0.5-1.1,0.8-1.8,1l3.9,6.3H10l-3.7-5.9H2.1v5.9L0,51.7L0,51.7z M2.1,43.9h4.9
	c0.6,0,1-0.2,1.4-0.5c0.4-0.3,0.7-0.7,1-1.2c0.2-0.5,0.3-1.1,0.3-1.7c0-0.7-0.2-1.2-0.4-1.7c-0.2-0.5-0.6-0.9-1-1.2
	c-0.4-0.3-1-0.5-1.4-0.5H2.1V43.9z"/>
<path d="M44.3,51.7V35.1h2.1v16.6H44.3z"/>
<path d="M56.5,38.9v12.6h-2.1V35.1h1.8l9.8,13V35.2h2.1v16.5h-1.8L56.5,38.9z"/>
</svg>
