<?xml version="1.0" encoding="utf-8"?>
<!-- Generator: Adobe Illustrator 26.0.3, SVG Export Plug-In . SVG Version: 6.00 Build 0)  -->
<svg version="1.1" id="Слой_1" xmlns="http://www.w3.org/2000/svg" xmlns:xlink="http://www.w3.org/1999/xlink" x="0px" y="0px"
	 viewBox="0 0 169 144" style="enable-background:new 0 0 169 144;" xml:space="preserve">
<g>
	<path d="M169,144H0V0h169V144z M2,142h165V2H2V142z"/>
</g>
<g>
	<path d="M127.1,101.2l-0.2,0c-1.3,0.2-2-0.3-2.8-1.3c-3.6-4.6-7.3-9.2-10.9-13.7c-0.2-0.2-0.3-0.3-0.5-0.4v15.4h-2.3V81.1
		c1.1-0.2,1.9-0.1,2.6,0.9c3.8,4.9,7.7,9.8,11.7,14.8V81.1h2.5L127.1,101.2z"/>
</g>
<g>
	<path d="M118.7,56.2c-0.3-0.4-0.4-0.6,0-1c1.3-1.4,2.6-2.8,3.9-4.3c1.2-1.3,2.4-2.7,3.8-4.2c-0.8,0-1.5,0-2.2,0
		c-0.3,0-0.5,0.2-0.7,0.4c-3.2,3.4-6.4,6.8-9.6,10.3c-0.1,0.2-0.3,0.3-0.7,0.6V46.7h-2.2v20.1h2.3c0-1.8,0-3.6,0-5.4
		c0-0.3,0-0.7,0.2-0.9c1.1-1.1,2.3-2.2,3.5-3.4c0.1,0.1,0.3,0.3,0.4,0.4c2,2.7,4,5.4,6,8.2c0.9,1.2,1.9,1.5,3.4,1
		C124,63.2,121.3,59.7,118.7,56.2z"/>
</g>
<g>
	<path d="M97.7,81.1h2.2v20.1h-2.2V81.1z"/>
</g>
<g>
	<path d="M89.4,88.4c-0.6-2.3-1.5-4.5-2.5-6.6c-6-12.6-12.1-25.3-18.2-37.9c-0.7-1.4-1.4-2.7-2.1-4.2c0,0.3-0.1,0.4-0.1,0.5
		c-0.2,4.3-0.5,8.5-0.7,12.8c-0.2,4.5-0.4,9-0.5,13.4c-0.2,6.9-0.3,13.8-0.4,20.8c0,2.2,0,4.4,0.5,6.5c1.5,6.9,7.6,10.9,14.6,9.6
		C86.5,102.1,91.2,94.8,89.4,88.4z M79.6,101.1c-5.7,1.2-11-2.2-12.2-7.9c-0.4-2-0.3-4-0.4-6c-0.1-1.2,0-2.4,0-3.6
		c-0.1-0.8,0.4-1,0.9-1.1c2.6-0.7,5.2-1.4,7.8-2c0.7-0.2,1.1-0.4,0.7-1.2c-0.1-0.4-0.2-0.8-0.3-1.2L67,80.5
		c0.4-10.9,0.7-21.6,1.1-32.4l0.2,0c0.1,0.2,0.2,0.4,0.3,0.6c5.6,11.8,11.2,23.5,16.8,35.3c0.8,1.7,1.5,3.6,1.9,5.5
		C88.5,94.7,84.8,100,79.6,101.1z"/>
</g>
<g>
	<path d="M58.3,54.2c-0.6-3.1-2.2-5.5-5.2-6.7c-1.3-0.5-2.6-0.8-4-0.8c-2.4-0.1-4.7,0-7.1,0v20c2.8,0,5.5,0.1,8.3,0
		c3.5-0.2,6.6-2.6,7.7-6C58.7,58.6,58.8,56.4,58.3,54.2z M55.6,60c-1,3.3-3.3,4.6-6.6,4.8c-1.3,0.1-2.6,0-3.9,0
		c-0.6,0-0.8-0.2-0.8-0.8c0-2.4,0-4.8,0-7.1c0-1.2,0-2.4,0-3.6c0-1.2,0-2.4,0-3.6c0-0.6,0.2-0.9,0.8-0.8c2,0.1,4.1,0,6,0.4
		c2.9,0.6,4.8,3.3,4.8,6.5C56.1,57.1,56,58.6,55.6,60z"/>
</g>
<g>
	<path d="M100.9,59.3c0.1-0.1,0.2-0.2,0.2-0.2c3-0.9,4.3-4,3.9-6.9c-0.2-1.5-1-2.9-2.1-3.9c-1.2-1-2.7-1.5-4.2-1.5h-8.1v20.2h2.3
		c0-2.2,0-4.3,0-6.4c0-0.8,0.2-1,1-1c1.2,0.1,2.5,0.1,3.7,0c0.3,0,0.5,0,0.8,0.2c0.2,0.1,0.4,0.3,0.5,0.6c1.3,2.1,2.6,4.1,3.9,6.1
		c0.1,0.2,0.3,0.5,0.5,0.5c0.8,0.1,1.6,0,2.5,0L100.9,59.3z M99.3,57.4c-2,0.1-4.1,0-6.1,0c-0.1,0-0.2-0.1-0.4-0.1
		c0-2.6,0-5.2,0-7.8c0-0.5,0.2-0.6,0.6-0.6c1.9,0,3.7,0,5.6,0c1.6,0,2.8,1.2,3.4,3c0.6,1.8-0.1,4.1-1.6,5
		C100.3,57.2,99.8,57.3,99.3,57.4z"/>
</g>
<g>
	<path d="M52.4,93.6c0.1-0.1,0.2-0.2,0.2-0.2c3-0.9,4.3-4,3.9-6.9c-0.2-1.5-0.9-2.9-2.1-3.9c-1.2-1-2.6-1.5-4.2-1.5H42v20.1h2.3
		c0-2.1,0.1-4.2,0-6.2c0-1,0.3-1.2,1.2-1.1c1.1,0.1,2.2,0.1,3.2,0c0.8-0.1,1.3,0.3,1.7,1c1.2,2,2.5,4,3.7,5.9
		c0.2,0.3,0.4,0.4,0.7,0.5c0.7,0.1,1.4,0,2.3,0L52.4,93.6z M50.8,91.7c-2.1,0.1-4.2,0-6.5,0c0-2.7,0-5.3,0-7.9
		c0-0.5,0.2-0.6,0.6-0.6c1.9,0,3.7,0,5.6,0c1.6,0,2.8,1.2,3.4,3c0.6,1.8-0.1,4.1-1.6,5C51.9,91.5,51.3,91.7,50.8,91.7z"/>
</g>
</svg>
