<svg width="255" height="30" viewBox="0 0 255 30" fill="none" xmlns="http://www.w3.org/2000/svg">
<path d="M3.36936 9.32875C2.9112 10.7229 2.8677 12.2278 3.2445 13.6479C4.47233 17.4811 8.75934 18.3557 11.163 18.3557C26.2612 18.3557 34.8768 4.61011 32.0361 1.20881C31.831 0.962089 31.577 0.764144 31.2915 0.62846C31.006 0.492777 30.6957 0.422543 30.3817 0.422543C30.0677 0.422543 29.7573 0.492777 29.4718 0.62846C29.1863 0.764144 28.9324 0.962089 28.7272 1.20881C28.7272 1.20881 30.6106 0.766103 30.236 2.7205C29.9135 4.38336 25.9074 11.0348 16.1159 12.0606C12.0162 12.4925 4.88854 11.3371 7.41705 3.7247C7.41705 3.64911 4.77408 5.04203 3.36936 9.32875Z" fill="#EE7326"/>
<path d="M30.9852 9.62071C30.9852 9.62071 30.5482 22.3189 15.3147 26.1197C8.86341 27.7286 -2.37439 24.824 0.445466 14.0694C0.445466 14.0694 1.85019 20.5481 9.8103 21.0556C14.0086 21.331 18.1997 20.4115 21.9314 18.3964C25.6631 16.3812 28.7936 13.3468 30.9852 9.62071Z" fill="#EE7326"/>
<path d="M13.1713 29.3046C29.4349 27.1451 31.62 12.0282 31.62 12.0282C31.62 12.0282 33.5034 20.3209 27.4579 25.8817C25.5884 27.7246 23.2772 29.0141 20.7647 29.6161C18.2522 30.2181 15.6302 30.1105 13.1713 29.3046Z" fill="#131313"/>
<path d="M45.1572 23.9384L47.4984 19.0902L41.0367 8.05486H45.1988L49.361 15.311L52.878 8.05486H56.9569L49.2361 23.9384H45.1572Z" fill="#131313"/>
<path d="M58.3721 23.9386V8.05505H65.7391C67.1997 7.96075 68.6388 8.45597 69.7556 9.43717C70.2471 9.93725 70.6289 10.5414 70.8749 11.2085C71.1209 11.8757 71.2254 12.59 71.1811 13.3028C71.2198 14.0069 71.1126 14.7115 70.8667 15.369C70.6208 16.0265 70.2419 16.6217 69.7556 17.1144C68.6425 18.1035 67.2016 18.6032 65.7391 18.5073H62.4198V23.9818L58.3721 23.9386ZM62.3678 15.3004H65.042C66.6028 15.3004 67.3832 14.6201 67.3832 13.2704C67.3832 11.9207 66.6028 11.2404 65.042 11.2404H62.4198L62.3678 15.3004Z" fill="#131313"/>
<path d="M70.1199 23.9384L77.2788 8.05486H80.4005L87.5593 23.9384H83.5949L82.2734 20.6991H75.4371L74.1156 23.9384H70.1199ZM78.8188 12.374L76.7378 17.5353H80.8999L78.8188 12.374Z" fill="#131313"/>
<path d="M89.9108 24.3595L87.8921 21.4117C88.6501 20.9693 89.3096 20.3659 89.8275 19.6409C90.3442 18.8378 90.6982 17.9341 90.8681 16.9846C91.1245 15.6554 91.2431 14.3016 91.2219 12.9463V8.05486H102.897V23.9384H98.901V11.4346H94.9054V14.026C94.9977 16.3129 94.54 18.5876 93.5735 20.6451C92.7562 22.2497 91.4754 23.5485 89.9108 24.3595Z" fill="#131313"/>
<path d="M106.216 23.9384V8.05486H110.201V14.1772H116.528V8.05486H120.502V23.9384H116.528V17.6217H110.212V23.9816L106.216 23.9384Z" fill="#EE7326"/>
<path d="M123.811 23.9384V8.05486H127.526V17.2438L134.539 8.05486H137.463V23.9384H133.78V14.7171L126.746 23.9384H123.811Z" fill="#EE7326"/>
<path d="M140.814 23.9384V8.05486H154.934V23.9384H150.949V11.4346H144.799V23.9384H140.814Z" fill="#EE7326"/>
<path d="M158.264 23.9384V8.05486H161.968V17.2438L168.981 8.05486H171.916V23.9384H168.222V14.7171L161.188 23.9384H158.264Z" fill="#EE7326"/>
<path d="M175.256 23.9384V8.05486H179.251V14.1772H185.567V8.05486H189.532V23.9384H185.567V17.6217H179.251V23.9816L175.256 23.9384Z" fill="#131313"/>
<path d="M192.851 23.9384V8.05486H203.662V11.2942H196.649V14.3176H203.132V17.5569H196.649V20.7962H203.631V24.0356L192.851 23.9384Z" fill="#131313"/>
<path d="M213.454 24.5645V22.7181C211.564 22.7674 209.72 22.1167 208.251 20.8825C207.602 20.2413 207.096 19.4606 206.769 18.5951C206.442 17.7296 206.302 16.8002 206.357 15.8723C206.297 14.9442 206.434 14.0138 206.757 13.1464C207.081 12.279 207.584 11.4956 208.23 10.8513C209.699 9.61848 211.544 8.97125 213.433 9.0265V7.30965H217.46V8.9833C219.369 8.91628 221.238 9.56397 222.725 10.8081C223.371 11.4524 223.874 12.2358 224.198 13.1032C224.521 13.9706 224.658 14.901 224.598 15.8291C224.655 16.7643 224.511 17.7009 224.176 18.5712C223.842 19.4415 223.325 20.2236 222.663 20.8609C221.194 22.0951 219.349 22.7458 217.46 22.6965V24.5429L213.454 24.5645ZM213.454 19.6731V12.1147C212.634 12.101 211.841 12.423 211.248 13.0109C210.918 13.4097 210.669 13.8734 210.515 14.3742C210.361 14.8751 210.306 15.4029 210.353 15.9263C210.325 16.6702 210.468 17.4103 210.769 18.0858C211.023 18.6089 211.421 19.0413 211.914 19.3276C212.398 19.5749 212.935 19.6936 213.475 19.6731H213.454ZM220.529 15.8723C220.578 15.3471 220.522 14.8171 220.365 14.3154C220.207 13.8138 219.951 13.3513 219.614 12.9569C219.02 12.369 218.228 12.047 217.408 12.0607V19.6191C217.948 19.6249 218.48 19.4913 218.958 19.2304C219.447 18.9435 219.842 18.511 220.092 17.9887C220.418 17.3345 220.586 16.6084 220.581 15.8723H220.529Z" fill="#131313"/>
<path d="M231.101 23.9384V11.4346H226.242V8.05486H239.956V11.4346H235.149V23.9384H231.101Z" fill="#131313"/>
<path d="M242.016 23.9384V8.05486H246.012V14.2204H249.612C251.028 14.1328 252.426 14.5732 253.556 15.4621C254.041 15.9082 254.422 16.4625 254.671 17.0835C254.919 17.7044 255.029 18.3757 254.992 19.047C255.032 19.7218 254.923 20.3971 254.674 21.0219C254.426 21.6467 254.043 22.2046 253.556 22.6535C252.429 23.5501 251.03 23.9982 249.612 23.9168L242.016 23.9384ZM246.012 20.807H249.071C249.64 20.8537 250.208 20.7017 250.684 20.3751C250.862 20.2139 251 20.0117 251.089 19.7848C251.177 19.5579 251.213 19.3126 251.194 19.0686C251.211 18.8281 251.174 18.5867 251.085 18.3637C250.997 18.1407 250.859 17.9421 250.684 17.7837C250.208 17.4571 249.64 17.3051 249.071 17.3518H246.012V20.807Z" fill="#131313"/>
<path d="M13.2025 0.874365C11.0174 1.63021 9.66472 2.81797 9.35256 4.97752C9.14445 7.0291 10.0809 9.18866 13.7228 9.83653C21.3187 11.3482 27.562 4.86955 27.562 4.86955C27.562 4.86955 21.839 -2.47295 13.2025 0.874365Z" fill="#131313"/>
</svg>
