<svg width="22" height="35" viewBox="0 0 22 35" fill="none" xmlns="http://www.w3.org/2000/svg">
<path fill-rule="evenodd" clip-rule="evenodd" d="M3.08951 3.04559L3.09085 3.04411C5.02054 0.926168 8.14609 0.00244141 11.1069 0.00244141C13.5575 0.00244141 15.6689 0.680786 17.1769 1.94586C18.6937 3.21833 19.561 5.05323 19.561 7.27002C19.561 9.71005 18.362 11.7458 16.6988 13.2915C15.6003 14.3123 14.2871 15.1323 12.9454 15.7315C14.8031 16.0654 16.5603 16.7358 17.9815 17.7823C19.9649 19.2429 21.2749 21.4259 21.2749 24.3647C21.2749 27.4554 19.8789 29.9178 17.6383 31.5932C15.4101 33.2593 12.3644 34.1372 9.0415 34.1372C5.97059 34.1372 3.98609 33.2477 2.81149 32.4725L2.80453 32.4679L2.80457 32.4678C1.49362 31.5709 0.477539 30.3186 0.477539 28.8252C0.477539 28.0015 0.769309 27.2703 1.30193 26.7445C1.83427 26.219 2.57513 25.9302 3.4165 25.9302C4.17963 25.9302 4.91054 26.1959 5.45439 26.7093C6.00303 27.2273 6.3335 27.9715 6.3335 28.8691C6.3335 29.602 6.10644 30.2374 5.68834 30.7246C5.46141 30.989 5.18609 31.2007 4.87658 31.3593C4.88721 31.3662 4.898 31.3732 4.90897 31.3801C5.18847 31.5578 5.55006 31.7285 5.97606 31.8769C6.82846 32.174 7.89887 32.3682 8.99756 32.3682C11.3568 32.3682 13.0906 31.5009 14.2428 30.132C15.4046 28.7515 16.0122 26.8152 16.0122 24.6284C16.0122 22.226 15.3519 20.385 14.2421 19.1059C13.1564 17.8544 11.6005 17.0945 9.68535 16.898C9.54264 16.9552 9.40771 17.0107 9.28125 17.0627C9.05848 17.1543 8.86201 17.2351 8.69565 17.2954C8.38752 17.4072 8.10078 17.4819 7.76709 17.4819C6.95805 17.4819 6.32227 16.9822 6.32227 16.2568C6.32227 15.5212 7.04161 15.0317 7.85498 15.0317C8.18716 15.0317 8.49528 15.0916 8.77369 15.1535C8.83825 15.1679 8.90077 15.1822 8.96206 15.1962C9.14819 15.2389 9.32302 15.2789 9.50962 15.3093C11.1718 14.9408 12.3254 14.0402 13.0766 12.8245C13.849 11.5744 14.2104 9.96506 14.2104 8.21484C14.2104 6.19625 13.7922 4.64724 13.0286 3.61507C12.2819 2.60586 11.1646 2.03516 9.61279 2.03516C7.78944 2.03516 5.84202 2.80133 4.88139 4.22267C5.39205 4.36861 5.8736 4.59173 6.26914 4.91225C6.85473 5.38678 7.23438 6.06374 7.23438 6.94043C7.23438 8.65556 5.89994 9.7915 4.27344 9.7915C3.34097 9.7915 2.60402 9.42368 2.10624 8.8543C1.61682 8.29449 1.37842 7.56384 1.37842 6.85254C1.37842 5.70682 1.99894 4.25218 3.08951 3.04559ZM4.62297 4.67056C4.45934 4.62843 4.29096 4.59415 4.11963 4.56738C4.19165 4.40577 4.27351 4.25061 4.36426 4.10192C5.40867 2.39074 7.63163 1.53516 9.61279 1.53516C12.9966 1.53516 14.7104 4.06201 14.7104 8.21484C14.7104 11.8403 13.2163 15.0483 9.5249 15.8174C9.28257 15.7828 9.05729 15.7311 8.83965 15.6812C8.50474 15.6044 8.18793 15.5317 7.85498 15.5317C7.1958 15.5317 6.82227 15.9053 6.82227 16.2568C6.82227 16.6304 7.15186 16.9819 7.76709 16.9819C8.16401 16.9819 8.49316 16.8464 9.07391 16.6072C9.23259 16.5419 9.41004 16.4688 9.61279 16.3887C13.7656 16.7622 16.5122 19.6406 16.5122 24.6284C16.5122 29.1768 13.9854 32.8682 8.99756 32.8682C7.05857 32.8682 5.19717 32.2939 4.32643 31.5759C4.16111 31.4396 4.0315 31.298 3.94385 31.1543C4.12275 31.1192 4.29268 31.069 4.45196 31.0043C5.2904 30.6638 5.8335 29.9216 5.8335 28.8691C5.8335 27.3311 4.71289 26.4302 3.4165 26.4302C1.96631 26.4302 0.977539 27.4189 0.977539 28.8252C0.977539 30.0776 1.83447 31.1982 3.08691 32.0552C4.18555 32.7803 6.0752 33.6372 9.0415 33.6372C15.5234 33.6372 20.7749 30.2095 20.7749 24.3647C20.7749 19.2945 16.6665 16.6746 12.043 16.1002C11.6172 16.0473 11.1871 16.0117 10.7554 15.9932C11.1597 15.8806 11.5703 15.7457 11.9814 15.5892C15.5022 14.2487 19.061 11.3231 19.061 7.27002C19.061 3.11719 15.8311 0.502441 11.1069 0.502441C8.22852 0.502441 5.26221 1.40332 3.46045 3.38086C2.42773 4.52344 1.87842 5.86377 1.87842 6.85254C1.87842 8.06104 2.69141 9.2915 4.27344 9.2915C5.65771 9.2915 6.73438 8.34668 6.73438 6.94043C6.73438 5.68621 5.80241 4.97423 4.62297 4.67056Z" fill="black"/>
</svg>
