<svg width="22" height="35" viewBox="0 0 22 35" fill="none" xmlns="http://www.w3.org/2000/svg">
<path fill-rule="evenodd" clip-rule="evenodd" d="M5.42163 17.7834C6.83639 14.1786 9.46251 12.8291 12.3481 12.8291C16.8525 12.8291 21.0054 16.125 21.0054 22.8706C21.0054 29.9897 16.4131 33.6372 10.876 33.6372C4.26221 33.6372 0.570801 28.4077 0.570801 18.6958C0.570801 7.48975 5.4707 0.502441 12.6338 0.502441C14.2378 0.502441 15.7759 0.875977 16.8965 1.44727C18.105 2.08447 19.4673 3.24902 19.4673 4.78711C19.4673 6.12744 18.3906 7.2041 16.9844 7.2041C15.688 7.2041 14.5674 6.25928 14.5674 4.91895C14.5674 3.99645 15.0836 3.17074 15.9501 2.63531C16.0949 2.54583 16.2495 2.46445 16.4131 2.39209C16.2978 2.26281 16.153 2.14631 15.9863 2.0418C15.1042 1.48905 13.6062 1.27148 12.5898 1.27148C8.64097 1.27148 4.97372 4.60748 4.92194 17.6891C4.92157 17.7825 4.92139 17.8764 4.92139 17.9707L4.94336 19.2671C5.06325 18.8068 5.19921 18.3751 5.34997 17.9707C5.35088 17.9683 5.35179 17.9658 5.3527 17.9634C5.37535 17.9028 5.39832 17.8428 5.42163 17.7834ZM5.43633 16.541C6.01972 15.4199 6.7438 14.5425 7.5779 13.8841C8.97357 12.7824 10.6328 12.3291 12.3481 12.3291C14.7233 12.3291 17.0222 13.1994 18.7265 14.9739C20.4326 16.7502 21.5054 19.3927 21.5054 22.8706C21.5054 26.5418 20.3183 29.3702 18.3669 31.2808C16.4189 33.1881 13.7538 34.1372 10.876 34.1372C7.41741 34.1372 4.68218 32.7592 2.83244 30.0935C1.00136 27.4547 0.0708008 23.6029 0.0708008 18.6958C0.0708008 13.0275 1.30902 8.37208 3.50145 5.1175C5.70347 1.8487 8.86672 0.00244141 12.6338 0.00244141C14.3081 0.00244141 15.9253 0.390951 17.1236 1.00181L17.1297 1.00494L17.1297 1.00498C17.7713 1.34326 18.4686 1.82856 19.0117 2.4505C19.5562 3.07413 19.9673 3.86199 19.9673 4.78711C19.9673 6.41235 18.6579 7.7041 16.9844 7.7041C15.4556 7.7041 14.0674 6.57726 14.0674 4.91895C14.0674 3.8666 14.6178 2.95276 15.4923 2.33886C15.2361 2.21257 14.9208 2.10182 14.5615 2.01199C13.8915 1.8445 13.1581 1.77148 12.5898 1.77148C11.6683 1.77148 10.7815 1.96684 9.96475 2.44073C9.14806 2.91459 8.37285 3.68342 7.69942 4.87398C6.4436 7.09414 5.56018 10.7488 5.43633 16.541ZM7.67641 30.3233C8.66556 31.7945 9.85661 32.2363 11.0518 32.2363C12.4131 32.2363 13.6497 31.6653 14.5692 30.2598C15.507 28.8264 16.1328 26.494 16.1328 22.9585C16.1328 19.7359 15.6097 17.534 14.7814 16.1544C13.972 14.8062 12.8672 14.23 11.5791 14.23C10.6799 14.23 9.45779 14.5266 8.32378 15.6103C7.19235 16.6916 6.10754 18.5961 5.55604 21.8843C5.85376 26.2224 6.66602 28.8204 7.67641 30.3233ZM5.05322 21.8599C5.64648 30.6709 8.34912 32.7363 11.0518 32.7363C14.106 32.7363 16.6328 30.1216 16.6328 22.9585C16.6328 16.4326 14.5234 13.73 11.5791 13.73C9.55762 13.73 6.17383 15.0703 5.05322 21.8599Z" fill="black"/>
</svg>
