<svg width="20" height="34" viewBox="0 0 20 34" fill="none" xmlns="http://www.w3.org/2000/svg">
<path fill-rule="evenodd" clip-rule="evenodd" d="M2.27504 3.04724C4.2899 0.798094 7.15054 0.00244141 9.85449 0.00244141C12.2999 0.00244141 14.5242 0.656046 16.148 1.9674C17.7844 3.28902 18.77 5.24752 18.77 7.75342C18.77 11.1113 16.8778 14.2681 14.2484 17.7163C13.2816 18.9841 12.2167 20.2901 11.0922 21.669C9.28479 23.8854 7.32364 26.2904 5.36958 29.0283H14.4907C15.3476 29.0283 15.9249 28.8183 16.347 28.3265C16.7961 27.8034 17.139 26.8845 17.3115 25.2994L17.3601 24.8535H19.41L19.3372 25.4175C19.2532 26.0684 19.2095 27.0772 19.2095 27.9243C19.2095 29.1141 19.2963 31.0288 19.5139 32.9435L19.5771 33.5H9.34912C8.02795 33.5 6.91063 33.489 5.92406 33.478C5.80218 33.4766 5.68234 33.4753 5.56441 33.4739C4.72667 33.4645 3.9846 33.4561 3.28467 33.4561C2.5187 33.4561 1.81154 33.4757 1.06169 33.4966L0.433594 33.5141V31.9091L0.559801 31.767C2.8346 29.2065 6.0516 25.5521 8.70069 21.4355C11.3563 17.3088 13.3975 12.7831 13.3975 8.47852C13.3975 6.21516 12.8394 4.5953 11.9672 3.55016C11.1035 2.51507 9.88866 1.99121 8.44824 1.99121C6.67157 1.99121 4.87011 2.78704 4.046 4.21247C4.56504 4.35834 5.05703 4.58472 5.45999 4.91314C6.04197 5.38748 6.42139 6.06396 6.42139 6.94043C6.42139 8.65556 5.08695 9.7915 3.46045 9.7915C2.52773 9.7915 1.78961 9.42337 1.29132 8.84658C0.801535 8.27964 0.56543 7.53806 0.56543 6.80859C0.56543 5.70329 1.14519 4.33844 2.27117 3.05161L2.27504 3.04724ZM3.82446 4.67045C3.66303 4.62837 3.49712 4.59413 3.32861 4.56738C3.38903 4.40391 3.45936 4.24676 3.53872 4.09597C4.44072 2.38221 6.50945 1.49121 8.44824 1.49121C11.5903 1.49121 13.8975 3.79834 13.8975 8.47852C13.8975 17.3774 5.48193 26.9795 0.933594 32.0991V33L1.04933 32.9968C1.17829 32.9932 1.30622 32.9896 1.43359 32.9862C2.0455 32.9697 2.64466 32.9561 3.28467 32.9561C3.98752 32.9561 4.73257 32.9645 5.56972 32.974C6.64305 32.9861 7.86778 33 9.34912 33H19.0171C18.9981 32.8332 18.9802 32.6664 18.9631 32.5C18.7829 30.7382 18.7095 29.0285 18.7095 27.9243C18.7095 27.2577 18.7361 26.4846 18.7893 25.8535C18.8044 25.6734 18.8218 25.5048 18.8413 25.3535H17.8086C17.457 28.5835 16.3804 29.5283 14.4907 29.5283H4.40527C4.52214 29.3605 4.63914 29.1938 4.75624 29.0283C6.78674 26.1583 8.84727 23.6308 10.7271 21.325C14.9559 16.1379 18.27 12.0727 18.27 7.75342C18.27 3.0293 14.5786 0.502441 9.85449 0.502441C7.23975 0.502441 4.53711 1.27148 2.64746 3.38086C1.5708 4.61133 1.06543 5.86377 1.06543 6.80859C1.06543 8.06104 1.87842 9.2915 3.46045 9.2915C4.84473 9.2915 5.92139 8.34668 5.92139 6.94043C5.92139 5.68607 4.9892 4.97406 3.82446 4.67045Z" fill="black"/>
</svg>
