<svg width="21" height="37" viewBox="0 0 21 37" fill="none" xmlns="http://www.w3.org/2000/svg">
<path fill-rule="evenodd" clip-rule="evenodd" d="M16.6223 0.398438H18.3797L18.3042 0.96452C18.2206 1.59143 18.1768 2.70854 18.1768 3.40332C18.1768 4.27231 18.2616 5.31949 18.4766 6.52343L18.5816 7.11133H4.55769L4.21333 16.5046C5.94649 15.5858 7.83867 15.23 9.85449 15.23C12.4206 15.23 15.0227 16.0046 16.9931 17.6355C18.9761 19.2768 20.2861 21.7597 20.2861 25.0903C20.2861 28.6684 18.9994 31.4476 16.8615 33.3266C14.7324 35.1979 11.8045 36.1372 8.58008 36.1372C6.32192 36.1372 4.60872 35.4675 3.33719 34.7049C1.49591 33.6226 0.521484 32.1456 0.521484 30.8252C0.521484 30.0017 0.813014 29.2719 1.3381 28.7468C1.86318 28.2217 2.59305 27.9302 3.4165 27.9302C4.19762 27.9302 4.93951 28.1933 5.4906 28.7072C6.04673 29.2258 6.37744 29.9713 6.37744 30.8691C6.37744 31.5983 6.15805 32.234 5.74185 32.723C5.50775 32.9981 5.22074 33.2158 4.89559 33.3763C4.90235 33.381 4.90917 33.3858 4.91607 33.3905C5.17118 33.5665 5.49926 33.7356 5.87945 33.8828C6.64158 34.1779 7.56928 34.3682 8.44824 34.3682C10.3391 34.3682 11.9257 33.7862 13.0542 32.4041C14.1982 31.0032 14.9355 28.7034 14.9355 25.1343C14.9355 22.1564 14.2071 20.1603 13.1462 18.9164C12.0921 17.6804 10.6627 17.1309 9.12939 17.1309C7.84063 17.1309 5.57817 17.5314 3.75151 18.8392L3.52341 19.0025L2.22223 18.4504L2.85191 2.35863L3.42667 2.47358C4.04453 2.59715 4.60328 2.63965 5.3501 2.63965H13.7217C14.7286 2.63965 15.3587 2.50176 15.7659 2.23517C16.1452 1.98688 16.4086 1.57379 16.5476 0.808994L16.6223 0.398438ZM4.34969 33.5829C4.19292 33.4444 4.06981 33.3005 3.98779 33.1543C4.16542 33.1201 4.33349 33.0716 4.49068 33.0094C5.3446 32.6712 5.87744 31.9269 5.87744 30.8691C5.87744 29.3311 4.75684 28.4302 3.4165 28.4302C2.01025 28.4302 1.02148 29.4189 1.02148 30.8252C1.02148 31.9019 1.83447 33.2422 3.59229 34.2749C4.80078 35 6.42676 35.6372 8.58008 35.6372C14.8423 35.6372 19.7861 31.9897 19.7861 25.0903C19.7861 18.7183 14.7983 15.73 9.85449 15.73C7.79825 15.73 5.90526 16.1109 4.19199 17.0869C4.01956 17.1851 3.84895 17.2894 3.68018 17.3999L4.07568 6.61133H17.9844C17.9541 6.44172 17.9263 6.27503 17.9009 6.11133C17.7421 5.08739 17.6768 4.18002 17.6768 3.40332C17.6768 2.85618 17.7034 2.04294 17.7566 1.39844C17.7718 1.2147 17.7891 1.04467 17.8086 0.898438H17.0396C16.7319 2.59033 15.7871 3.13965 13.7217 3.13965H5.3501C4.77782 3.13965 4.30288 3.11531 3.82568 3.04854C3.66161 3.02558 3.49727 2.9976 3.32861 2.96387L2.73535 18.125L3.46045 18.4326C5.39404 17.0483 7.76709 16.6309 9.12939 16.6309C12.4473 16.6309 15.4355 19.0259 15.4355 25.1343C15.4355 32.3853 12.4473 34.8682 8.44824 34.8682C6.86526 34.8682 5.15893 34.2976 4.34969 33.5829Z" fill="black"/>
</svg>
