<svg width="24" height="34" viewBox="0 0 24 34" fill="none" xmlns="http://www.w3.org/2000/svg">
<path fill-rule="evenodd" clip-rule="evenodd" d="M17.1826 0.502441V21.6621H22.8516V24.6724H17.1826V28.2319C17.1826 31.5059 17.7759 31.9673 20.8301 32.0991V33C20.6765 32.9892 20.5094 32.9791 20.3301 32.9697C19.0466 32.902 17.1361 32.8682 15.0732 32.8682C12.8781 32.8682 10.6652 32.9038 9.09131 32.975C8.91646 32.9829 8.74949 32.9912 8.59131 33V32.0991C12.3706 31.9673 13.1396 31.5059 13.1396 28.2319V24.6724H0.769043V23.7715L16.4795 0.502441H17.1826ZM3.18604 21.6621H13.1396V6.78662L3.18604 21.6621ZM12.6396 8.43295L4.12221 21.1621H12.6396V8.43295ZM12.6396 25.1724H0.269043V23.6185L16.2138 0.00244141H17.6826V21.1621H23.3516V25.1724H17.6826V28.2319C17.6826 29.0424 17.72 29.644 17.8129 30.0987C17.9047 30.5479 18.0432 30.8153 18.2182 30.9939C18.3934 31.1728 18.6538 31.3123 19.0851 31.4127C19.522 31.5144 20.0923 31.5668 20.8516 31.5996L21.3301 31.6202V33.5363L20.7951 33.4988C19.5613 33.4122 17.4227 33.3682 15.0732 33.3682C12.6373 33.3682 10.1872 33.4121 8.61904 33.4992L8.09131 33.5285V31.6163L8.57388 31.5994C9.5154 31.5666 10.2402 31.5138 10.8044 31.4082C11.3685 31.3026 11.7263 31.152 11.9671 30.956C12.4286 30.5803 12.6396 29.8859 12.6396 28.2319V25.1724Z" fill="black"/>
</svg>
