<svg width="14" height="35" viewBox="0 0 14 35" fill="none" xmlns="http://www.w3.org/2000/svg">
<path fill-rule="evenodd" clip-rule="evenodd" d="M10.3545 0.882568V29.232C10.3545 30.043 10.3905 30.6452 10.4817 31.1007C10.5719 31.5509 10.7084 31.8179 10.8809 31.9958C11.0532 32.1735 11.3102 32.3126 11.7389 32.4128C12.1734 32.5144 12.7422 32.5668 13.5015 32.5996L13.98 32.6203V34.5363L13.445 34.4988C12.2112 34.4122 10.0726 34.3682 7.72314 34.3682C5.30917 34.3682 2.83711 34.4121 1.26895 34.4993L0.741211 34.5286V32.6163L1.22378 32.5995C2.1653 32.5666 2.89011 32.5138 3.4543 32.4082C4.01839 32.3026 4.37621 32.1521 4.61696 31.9561C5.07854 31.5803 5.28955 30.8859 5.28955 29.232V8.88528C5.28955 7.36981 4.9993 6.73681 4.43928 6.39114C4.12797 6.19899 3.68391 6.06271 3.03728 5.97918C2.39312 5.89597 1.58906 5.86966 0.582031 5.86966H0.0820312V3.99258L0.50974 3.93009C5.26727 3.23492 7.82949 2.17513 9.62666 1.25515L10.3545 0.882568ZM1.24121 33.0992C5.02051 32.9673 5.78955 32.5059 5.78955 29.232V8.88528C5.78955 5.78714 4.625 5.36966 0.582031 5.36966V4.42484C4.9755 3.78287 7.53732 2.82952 9.35449 1.94942C9.5276 1.86558 9.69396 1.7824 9.85449 1.70023V29.232C9.85449 32.5059 10.4258 32.9673 13.48 33.0992V34C13.3264 33.9893 13.1593 33.9791 12.98 33.9697C11.6965 33.902 9.78596 33.8682 7.72314 33.8682C5.54754 33.8682 3.31853 33.9038 1.74121 33.975C1.5662 33.9829 1.39921 33.9913 1.24121 34V33.0992Z" fill="black"/>
</svg>
