<?xml version="1.0" encoding="utf-8"?>
<!-- Generator: Adobe Illustrator 26.0.3, SVG Export Plug-In . SVG Version: 6.00 Build 0)  -->
<svg version="1.1" id="Слой_1" xmlns="http://www.w3.org/2000/svg" xmlns:xlink="http://www.w3.org/1999/xlink" x="0px" y="0px"
	 viewBox="0 0 19 18" style="enable-background:new 0 0 19 18;" xml:space="preserve">
<g>
	<path d="M6.7,6.3C6.9,5.9,7,5.7,7.4,5.4c0.3-0.2,0.6-0.4,1-0.6c0.4-0.1,0.9-0.2,1.3-0.2c0.4,0,0.8,0,1.1,0.1
		c0.3,0.1,0.6,0.2,0.9,0.4c0.3,0.2,0.5,0.4,0.6,0.7c0.2,0.3,0.2,0.6,0.2,1c0,0.5-0.1,0.9-0.3,1.2c-0.2,0.3-0.5,0.6-0.9,1l-0.7,0.6
		c-0.2,0.1-0.3,0.3-0.4,0.4c-0.1,0.1-0.2,0.3-0.2,0.5C10,10.9,10,11.1,10,11.5H9.2c0-0.4,0-0.5,0.1-0.8c0.1-0.2,0.2-0.5,0.3-0.7
		C9.6,9.7,9.8,9.5,10,9.3c0.2-0.2,0.5-0.4,0.7-0.7c0.3-0.2,0.5-0.5,0.6-0.7c0.2-0.2,0.3-0.6,0.3-0.9c0-0.2-0.1-0.5-0.2-0.7
		c-0.1-0.2-0.3-0.4-0.4-0.5c-0.2-0.1-0.4-0.2-0.6-0.3c-0.3-0.1-0.5-0.1-0.8-0.1c-0.4,0-0.7,0-1,0.2C8.4,5.6,8.2,5.8,8,6
		C7.8,6.2,7.7,6.4,7.6,6.7C7.5,7,7.4,7.2,7.4,7.5H6.5C6.5,7.1,6.6,6.7,6.7,6.3z M10,12.4v1H9v-1H10z"/>
	<path d="M9.5,17.6c-4.9,0-8.8-3.8-8.8-8.6s4-8.6,8.8-8.6s8.8,3.8,8.8,8.6S14.4,17.6,9.5,17.6z M9.5,1.4C5.2,1.4,1.7,4.8,1.7,9
		c0,4.2,3.5,7.6,7.8,7.6s7.8-3.4,7.8-7.6C17.3,4.8,13.8,1.4,9.5,1.4z"/>
</g>
</svg>
