<svg width="19" height="18" viewBox="0 0 19 18" fill="none" xmlns="http://www.w3.org/2000/svg">
<path d="M6.21429 6.59806C6.375 6.20712 6.53571 5.91391 6.85714 5.66958C7.125 5.42524 7.44643 5.22977 7.875 5.08317C8.30357 4.93656 8.73214 4.8877 9.21429 4.8877C9.58929 4.8877 9.96429 4.93656 10.2857 5.0343C10.6071 5.13203 10.9286 5.27863 11.1964 5.4741C11.4643 5.66957 11.6786 5.91391 11.7857 6.20712C11.9464 6.50032 12 6.84239 12 7.18447C12 7.67314 11.8929 8.06408 11.6786 8.40615C11.4643 8.74823 11.1429 9.04143 10.8214 9.3835L10.125 10.0188C9.96429 10.1654 9.80357 10.312 9.75 10.4586C9.64286 10.6052 9.58929 10.8007 9.58929 10.9961C9.53571 11.1916 9.53571 11.3382 9.53571 11.7291H8.67857C8.67857 11.3382 8.67857 11.1916 8.73214 10.8984C8.78571 10.6541 8.89286 10.4097 9 10.1654C9.10714 9.96991 9.26786 9.77445 9.48214 9.57897C9.69643 9.3835 9.96429 9.18803 10.2321 8.89483C10.5 8.65049 10.7143 8.40615 10.875 8.16182C11.0357 7.91748 11.1429 7.57541 11.1429 7.2822C11.1429 7.03786 11.0893 6.79353 10.9821 6.59806C10.875 6.40259 10.7143 6.20712 10.5536 6.06051C10.3929 5.91391 10.1786 5.81618 9.91071 5.71844C9.64286 5.62071 9.42857 5.57184 9.16071 5.57184C8.78571 5.57184 8.46429 5.62071 8.19643 5.76731C7.92857 5.86504 7.66071 6.06051 7.5 6.25598C7.33929 6.45145 7.17857 6.69579 7.07143 6.989C6.96429 7.2822 6.85714 7.4288 6.85714 7.77088H6C6 7.33107 6.05357 6.989 6.21429 6.59806ZM9.53571 12.6576V13.635H8.46429V12.6576H9.53571Z" fill="#313131"/>
<path d="M9.3125 17.1582C13.9034 17.1582 17.625 13.5411 17.625 9.0791C17.625 4.61714 13.9034 1 9.3125 1C4.72163 1 1 4.61714 1 9.0791C1 13.5411 4.72163 17.1582 9.3125 17.1582Z" stroke="#313131" stroke-linecap="round" stroke-linejoin="round"/>
</svg>
