<?xml version="1.0" encoding="utf-8"?>
<!-- Generator: Adobe Illustrator 23.1.0, SVG Export Plug-In . SVG Version: 6.00 Build 0)  -->
<svg version="1.1" id="Слой_1" xmlns="http://www.w3.org/2000/svg" xmlns:xlink="http://www.w3.org/1999/xlink" x="0px" y="0px"
	 viewBox="0 0 16 16" style="enable-background:new 0 0 16 16;" xml:space="preserve">
<path d="M15.6,15.6L11.7,11c2.4-2.5,2.4-6.5,0-9C9.2-0.6,5-0.7,2.4,1.9c-2.6,2.5-2.7,6.7-0.1,9.2C3.6,12.4,5.2,13,6.9,13
	c1.6,0,3.1-0.6,4.3-1.7l3.8,4.6L15.6,15.6z M2.7,10.7C0.4,8.4,0.5,4.6,2.8,2.3C5.2,0,9,0,11.3,2.3c2.3,2.3,2.2,6.1-0.1,8.5
	S5,13.1,2.7,10.7z"/>
</svg>
