<?xml version="1.0" encoding="utf-8"?>
<!-- Generator: Adobe Illustrator 26.0.3, SVG Export Plug-In . SVG Version: 6.00 Build 0)  -->
<svg version="1.1" id="Слой_1" xmlns="http://www.w3.org/2000/svg" xmlns:xlink="http://www.w3.org/1999/xlink" x="0px" y="0px"
	 viewBox="0 0 16 16" style="enable-background:new 0 0 16 16;" xml:space="preserve">
<path d="M14.8,15.3l-3.3-4c2-2.2,2-5.5,0-7.7C9.4,1.4,5.9,1.4,3.7,3.6C2.6,4.6,2,6,2,7.5c0,1.5,0.5,2.9,1.6,3.9
	c1.1,1.1,2.5,1.7,3.9,1.7c1.3,0,2.6-0.5,3.7-1.4l3.3,3.9L14.8,15.3z M3.9,11.1c-0.9-1-1.5-2.2-1.4-3.6C2.5,6.1,3,4.8,4,3.9
	c1-1,2.3-1.5,3.6-1.5c1.3,0,2.6,0.5,3.6,1.5c1.9,2,1.9,5.2-0.1,7.2S5.8,13.1,3.9,11.1z"/>
</svg>
