<?xml version="1.0" encoding="utf-8"?>
<!-- Generator: Adobe Illustrator 26.0.3, SVG Export Plug-In . SVG Version: 6.00 Build 0)  -->
<svg version="1.1" id="Слой_1" xmlns="http://www.w3.org/2000/svg" xmlns:xlink="http://www.w3.org/1999/xlink" x="0px" y="0px"
	 viewBox="0 0 105 28" style="enable-background:new 0 0 105 28;" xml:space="preserve">
<path d="M5.7,6C6.5,6,7.3,6.1,8,6.3s1.5,0.5,2.3,0.9v3C9.6,9.7,8.7,9.3,7.9,9C7,8.7,6.3,8.6,5.6,8.6c-0.6,0-1,0.1-1.4,0.3
	C3.9,9.1,3.7,9.4,3.7,9.8c0,0.2,0.1,0.4,0.4,0.7c0.3,0.2,1,0.6,2.2,1.2c1.7,0.8,2.9,1.6,3.6,2.3c0.7,0.7,1,1.6,1,2.6
	c0,1.4-0.5,2.5-1.5,3.3c-1,0.8-2.4,1.2-4.1,1.2c-1.1,0-2.1-0.1-3-0.3c-0.9-0.2-1.7-0.5-2.3-0.8v-3.2c2,1.1,3.7,1.6,5,1.6
	c0.7,0,1.2-0.1,1.6-0.3s0.6-0.5,0.6-0.9c0-0.2-0.1-0.4-0.2-0.6c-0.1-0.2-0.4-0.4-0.7-0.6c-0.3-0.2-1.3-0.7-2.8-1.4
	c-1.2-0.6-2.1-1.2-2.7-1.8C0.3,11.9,0,11.1,0,10.2c0-1.3,0.5-2.3,1.6-3.1C2.6,6.4,4,6,5.7,6z"/>
<path d="M19.2,6c2.1,0,3.8,0.7,5,2c1.2,1.3,1.8,3.3,1.8,5.7v0.6H15.9c0.2,1.3,0.6,2.3,1.4,3c0.8,0.7,1.9,1,3.3,1
	c0.9,0,1.8-0.2,2.6-0.5c0.8-0.3,1.7-0.8,2.6-1.4v2.8C24.1,20.4,22,21,19.7,21c-2.3,0-4.1-0.7-5.5-2.1c-1.4-1.4-2.1-3.2-2.1-5.5
	c0-2.2,0.6-4,2-5.4C15.3,6.6,17.1,6,19.2,6z M22.4,12c-0.1-1-0.4-1.9-0.9-2.5c-0.5-0.6-1.2-0.9-2.2-0.9s-1.7,0.3-2.3,0.9
	c-0.6,0.6-0.9,1.4-1.1,2.5H22.4z"/>
<path d="M40,6.7c-0.3-0.2-0.5-0.3-0.7-0.4c-0.5-0.2-1-0.4-1.6-0.4c-0.9,0-1.7,0.3-2.4,1c-0.7,0.6-1.5,1.7-2.2,3.1h0V6.3h-4V21h4
	v-6.7c0-0.7,0.2-1.5,0.5-2.2c0.4-0.7,0.9-1.3,1.5-1.8c0.6-0.4,1.2-0.7,1.8-0.7c0.5,0,1.1,0.2,1.9,0.7L40,6.7z"/>
<path d="M64.7,6c1.6,0,2.9,0.5,3.9,1.5c0.9,1,1.4,2.4,1.4,4.1V21h-4V12c0-1-0.2-1.7-0.7-2.2c-0.5-0.6-1.1-0.8-1.9-0.8
	c-0.6,0-1.2,0.2-1.7,0.5c-0.5,0.4-1.1,0.9-1.8,1.8V21h-4V6.3h4v2.1c0.7-0.8,1.5-1.5,2.3-1.8C63,6.2,63.8,6,64.7,6z"/>
<path d="M83.6,3h0.3v3.7H91v2.8h-7.1V16c0,0.6,0.2,1.1,0.6,1.5c0.4,0.4,0.9,0.6,1.6,0.6c0.9,0,1.9-0.3,3-0.9v2.9
	c-1.4,0.6-2.6,0.9-3.8,0.9c-1.6,0-2.9-0.4-3.8-1.3c-0.9-0.9-1.4-2-1.4-3.5V9.5H78V8.9L83.6,3z"/>
<path d="M92.4,7l3.6,7.5L99.6,7h4.4L93.4,28h-4.3l4.9-9.6L88,7H92.4z"/>
<path d="M47.1,6c2.1,0,3.8,0.7,5,2c1.2,1.3,1.8,3.3,1.8,5.7v0.6H43.9c0.2,1.3,0.6,2.3,1.4,3c0.8,0.7,1.9,1,3.3,1
	c0.9,0,1.8-0.2,2.6-0.5c0.8-0.3,1.7-0.8,2.6-1.4v2.8C52.1,20.4,50,21,47.7,21c-2.3,0-4.1-0.7-5.5-2.1c-1.4-1.4-2.1-3.2-2.1-5.5
	c0-2.2,0.6-4,2-5.4C43.3,6.6,45,6,47.1,6z M50.4,12c-0.1-1-0.4-1.9-0.9-2.5c-0.5-0.6-1.2-0.9-2.2-0.9c-0.9,0-1.7,0.3-2.3,0.9
	c-0.6,0.6-0.9,1.4-1.1,2.5H50.4z"/>
<path d="M74,0c0.6,0,1,0.2,1.4,0.6C75.8,1.1,76,1.5,76,2.2c0,0.6-0.2,1.1-0.6,1.5C75,4.1,74.6,4.3,74,4.3c-0.5,0-1-0.2-1.4-0.6
	C72.2,3.2,72,2.7,72,2.2c0-0.6,0.2-1.1,0.6-1.5C73,0.2,73.5,0,74,0z M75.8,21h-3.6V6.6h3.6V21z"/>
</svg>
