<?xml version="1.0" encoding="utf-8"?>
<!-- Generator: Adobe Illustrator 26.0.3, SVG Export Plug-In . SVG Version: 6.00 Build 0)  -->
<svg version="1.1" id="Слой_1" xmlns="http://www.w3.org/2000/svg" xmlns:xlink="http://www.w3.org/1999/xlink" x="0px" y="0px"
	 viewBox="0 0 38 38" style="enable-background:new 0 0 38 38;" xml:space="preserve">
<style type="text/css">
	.st0{fill-rule:evenodd;clip-rule:evenodd;}
</style>
<g>
	<g>
		<path d="M19,37.5C8.8,37.5,0.5,29.2,0.5,19S8.8,0.5,19,0.5S37.5,8.8,37.5,19S29.2,37.5,19,37.5z M19,1.5C9.4,1.5,1.5,9.4,1.5,19
			S9.4,36.5,19,36.5S36.5,28.6,36.5,19S28.6,1.5,19,1.5z"/>
	</g>
	<path class="st0" d="M16.8,25.4c0.4,0,0.6-0.2,0.8-0.4l0,0l1.9-1.9l4,3c0.7,0.4,1.3,0.2,1.5-0.7L27.6,13c0.3-1.1-0.4-1.6-1.1-1.2
		l-15.4,5.9c-1.1,0.4-1,1-0.2,1.3l4,1.2l9.2-5.8c0.4-0.3,0.8-0.1,0.5,0.2l-7.4,6.7l0,0L16.8,25.4z"/>
</g>
</svg>
