<svg width="38" height="38" viewBox="0 0 38 38" fill="none" xmlns="http://www.w3.org/2000/svg">
<circle cx="19" cy="19" r="18" stroke="black"/>
<circle cx="19" cy="19.002" r="16" fill="black"/>
<path fill-rule="evenodd" clip-rule="evenodd" d="M19.001 35C27.8375 35 35.001 27.8366 35.001 19C35.001 10.1634 27.8375 3 19.001 3C10.1644 3 3.00098 10.1634 3.00098 19C3.00098 27.8366 10.1644 35 19.001 35ZM16.0674 26.333C16.4565 26.333 16.6344 26.1598 16.8493 25.9506L16.8674 25.933L18.7889 24.0645L22.7886 27.0195C23.5244 27.4255 24.0554 27.2153 24.2387 26.3364L26.8634 13.968C27.1321 12.8906 26.4527 12.402 25.7488 12.7215L10.3368 18.6643C9.28478 19.0863 9.29091 19.6732 10.145 19.9347L14.1001 21.1692L23.2565 15.3925C23.6888 15.1304 24.0855 15.2713 23.7599 15.5603L16.3414 22.2549L16.3396 22.2539L16.0674 26.333Z" fill="white"/>
</svg>
