<?xml version="1.0" encoding="utf-8"?>
<!-- Generator: Adobe Illustrator 23.1.0, SVG Export Plug-In . SVG Version: 6.00 Build 0)  -->
<svg version="1.1" id="Слой_1" xmlns="http://www.w3.org/2000/svg" xmlns:xlink="http://www.w3.org/1999/xlink" x="0px" y="0px"
	 viewBox="0 0 11 14" style="enable-background:new 0 0 11 14;" xml:space="preserve">
<path d="M9.7,5.8H7.2c0.9-0.6,1.4-1.5,1.4-2.6c0-1.7-1.4-3.1-3.1-3.1c-1.7,0-3.1,1.4-3.1,3.1c0,1.1,0.6,2,1.4,2.6H1.3l-1.1,7.6h10.5
	L9.7,5.8z M2.9,3.2c0-1.4,1.2-2.6,2.6-2.6s2.6,1.2,2.6,2.6S7,5.8,5.5,5.8S2.9,4.6,2.9,3.2z M1.8,6.3h7.5l0.9,6.6H0.8L1.8,6.3z"/>
</svg>
