<?xml version="1.0" encoding="utf-8"?>
<!-- Generator: Adobe Illustrator 26.0.3, SVG Export Plug-In . SVG Version: 6.00 Build 0)  -->
<svg version="1.1" id="Слой_1" xmlns="http://www.w3.org/2000/svg" xmlns:xlink="http://www.w3.org/1999/xlink" x="0px" y="0px"
	 viewBox="0 0 11 14" style="enable-background:new 0 0 11 14;" xml:space="preserve">
<path d="M9.8,6.1H7.2c0.9-0.6,1.4-1.5,1.4-2.6c0-1.7-1.4-3.1-3.1-3.1S2.4,1.8,2.4,3.5c0,1.1,0.6,2,1.4,2.6H1.4l-1.1,7.6h10.5
	L9.8,6.1z M3,3.5c0-1.4,1.2-2.6,2.6-2.6s2.6,1.2,2.6,2.6S7.1,6.1,5.6,6.1S3,4.8,3,3.5z M1.9,6.6h7.5l0.9,6.6H0.9L1.9,6.6z"/>
</svg>
