<svg width="38" height="38" viewBox="0 0 38 38" fill="none" xmlns="http://www.w3.org/2000/svg">
<path fill-rule="evenodd" clip-rule="evenodd" d="M19.5299 24.7108C19.5299 24.7108 19.9089 24.6695 20.103 24.4648C20.2807 24.2773 20.2745 23.9234 20.2745 23.9234C20.2745 23.9234 20.2509 22.271 21.0325 22.027C21.8029 21.787 22.792 23.625 23.8417 24.3318C24.6346 24.8661 25.2365 24.7492 25.2365 24.7492L28.0415 24.7108C28.0415 24.7108 29.5083 24.6221 28.8129 23.4899C28.7554 23.3971 28.4072 22.6521 26.7279 21.1216C24.9684 19.5196 25.2047 19.7787 27.3226 17.0071C28.6126 15.3194 29.1282 14.289 28.967 13.8484C28.8139 13.427 27.8649 13.5389 27.8649 13.5389L24.7075 13.558C24.7075 13.558 24.4734 13.5268 24.2998 13.6286C24.1303 13.7284 24.0204 13.9613 24.0204 13.9613C24.0204 13.9613 23.5212 15.267 22.8546 16.378C21.4485 18.7211 20.8867 18.8451 20.6566 18.6999C20.1215 18.3601 20.255 17.3368 20.255 16.6099C20.255 14.3384 20.6063 13.3917 19.572 13.1467C19.2289 13.065 18.9763 13.0116 18.0981 13.0025C16.9713 12.9914 16.0182 13.0066 15.4779 13.2657C15.1184 13.4381 14.8411 13.8232 15.0106 13.8454C15.2191 13.8726 15.6916 13.9704 15.9422 14.3051C16.2657 14.7376 16.2544 15.7075 16.2544 15.7075C16.2544 15.7075 16.4403 18.3813 15.8199 18.713C15.3947 18.9409 14.8113 18.4761 13.5572 16.3498C12.9153 15.2609 12.4305 14.0571 12.4305 14.0571C12.4305 14.0571 12.337 13.8323 12.1696 13.7113C11.9673 13.5651 11.6848 13.5197 11.6848 13.5197L8.68461 13.5389C8.68461 13.5389 8.23371 13.551 8.06834 13.7436C7.92147 13.9139 8.05704 14.2678 8.05704 14.2678C8.05704 14.2678 10.406 19.6627 13.0663 22.3819C15.5057 24.8742 18.2747 24.7108 18.2747 24.7108H19.5299Z" fill="#313131"/>
<circle cx="19" cy="19" r="18" stroke="black"/>
</svg>
