<?xml version="1.0" encoding="utf-8"?>
<!-- Generator: Adobe Illustrator 26.0.3, SVG Export Plug-In . SVG Version: 6.00 Build 0)  -->
<svg version="1.1" id="Слой_1" xmlns="http://www.w3.org/2000/svg" xmlns:xlink="http://www.w3.org/1999/xlink" x="0px" y="0px"
	 viewBox="0 0 38 38" style="enable-background:new 0 0 38 38;" xml:space="preserve">
<style type="text/css">
	.st0{fill-rule:evenodd;clip-rule:evenodd;}
</style>
<g>
	<path class="st0" d="M19.5,24.7c0,0,0.4,0,0.6-0.2c0.2-0.2,0.2-0.5,0.2-0.5s0-1.7,0.8-1.9c0.8-0.2,1.8,1.6,2.8,2.3
		c0.8,0.5,1.4,0.4,1.4,0.4l2.8,0c0,0,1.5-0.1,0.8-1.2c-0.1-0.1-0.4-0.8-2.1-2.4c-1.8-1.6-1.5-1.3,0.6-4.1c1.3-1.7,1.8-2.7,1.6-3.2
		c-0.2-0.4-1.1-0.3-1.1-0.3l-3.2,0c0,0-0.2,0-0.4,0.1C24.1,13.7,24,14,24,14s-0.5,1.3-1.2,2.4c-1.4,2.3-2,2.5-2.2,2.3
		c-0.5-0.3-0.4-1.4-0.4-2.1c0-2.3,0.4-3.2-0.7-3.5C19.2,13.1,19,13,18.1,13c-1.1,0-2.1,0-2.6,0.3c-0.4,0.2-0.6,0.6-0.5,0.6
		c0.2,0,0.7,0.1,0.9,0.5c0.3,0.4,0.3,1.4,0.3,1.4s0.2,2.7-0.4,3c-0.4,0.2-1-0.2-2.3-2.4c-0.6-1.1-1.1-2.3-1.1-2.3s-0.1-0.2-0.3-0.3
		c-0.2-0.1-0.5-0.2-0.5-0.2l-3,0c0,0-0.5,0-0.6,0.2c-0.1,0.2,0,0.5,0,0.5s2.3,5.4,5,8.1c2.4,2.5,5.2,2.3,5.2,2.3H19.5z"/>
</g>
<g>
	<path d="M19,37.5C8.8,37.5,0.5,29.2,0.5,19S8.8,0.5,19,0.5S37.5,8.8,37.5,19S29.2,37.5,19,37.5z M19,1.5C9.4,1.5,1.5,9.4,1.5,19
		S9.4,36.5,19,36.5S36.5,28.6,36.5,19S28.6,1.5,19,1.5z"/>
</g>
</svg>
