<?xml version="1.0" encoding="utf-8"?>
<!-- Generator: Adobe Illustrator 26.0.3, SVG Export Plug-In . SVG Version: 6.00 Build 0)  -->
<svg version="1.1" id="Слой_1" xmlns="http://www.w3.org/2000/svg" xmlns:xlink="http://www.w3.org/1999/xlink" x="0px" y="0px"
	 viewBox="0 0 38 38" style="enable-background:new 0 0 38 38;" xml:space="preserve">
<style type="text/css">
	.st0{fill-rule:evenodd;clip-rule:evenodd;}
</style>
<g>
	<path d="M19,37.5C8.8,37.5,0.5,29.2,0.5,19S8.8,0.5,19,0.5S37.5,8.8,37.5,19S29.2,37.5,19,37.5z M19,1.5C9.4,1.5,1.5,9.4,1.5,19
		S9.4,36.5,19,36.5S36.5,28.6,36.5,19S28.6,1.5,19,1.5z"/>
</g>
<g>
	<g>
		<path class="st0" d="M23.1,20.8c-0.2-0.1-1.3-0.7-1.5-0.7C21.3,20,21.2,20,21,20.2c-0.1,0.2-0.6,0.7-0.7,0.9
			c-0.1,0.1-0.3,0.2-0.5,0.1c-0.2-0.1-0.9-0.3-1.8-1.1c-0.7-0.6-1.1-1.3-1.2-1.5c-0.1-0.2,0-0.3,0.1-0.5c0.1-0.1,0.2-0.3,0.3-0.4
			c0.1-0.1,0.1-0.2,0.2-0.4c0.1-0.1,0-0.3,0-0.4c-0.1-0.1-0.5-1.2-0.7-1.7c-0.2-0.4-0.4-0.4-0.5-0.4c-0.1,0-0.3,0-0.4,0
			c-0.1,0-0.4,0.1-0.6,0.3c-0.2,0.2-0.8,0.8-0.8,1.9c0,1.1,0.8,2.2,0.9,2.3c0.1,0.1,1.6,2.4,3.8,3.4c0.5,0.2,0.9,0.4,1.3,0.5
			c0.5,0.2,1,0.1,1.4,0.1c0.4-0.1,1.3-0.5,1.5-1.1c0.2-0.5,0.2-1,0.1-1.1C23.4,21,23.3,20.9,23.1,20.8L23.1,20.8z M19,26.3L19,26.3
			c-1.3,0-2.6-0.4-3.8-1l-0.3-0.2l-2.8,0.7l0.7-2.7l-0.2-0.3c-0.7-1.2-1.1-2.5-1.1-3.9c0-4.1,3.3-7.4,7.4-7.4c2,0,3.8,0.8,5.2,2.2
			c0.7,0.7,1.2,1.5,1.6,2.4c0.4,0.9,0.6,1.9,0.6,2.8C26.4,23,23.1,26.3,19,26.3z M25.3,12.6c-0.8-0.8-1.8-1.5-2.9-1.9
			C21.3,10.2,20.2,10,19,10c-4.9,0-8.9,4-8.9,8.9c0,1.6,0.4,3.1,1.2,4.5L10,28l4.7-1.2c1.3,0.7,2.8,1.1,4.3,1.1h0
			c4.9,0,8.9-4,8.9-8.9c0-1.2-0.2-2.3-0.7-3.4C26.8,14.4,26.1,13.4,25.3,12.6z"/>
	</g>
</g>
</svg>
