<svg width="38" height="38" viewBox="0 0 38 38" fill="none" xmlns="http://www.w3.org/2000/svg">
<circle cx="19" cy="19" r="18" stroke="#313131"/>
<g clip-path="url(#clip0_4873_4695)">
<path fill-rule="evenodd" clip-rule="evenodd" d="M23.0613 20.7865C22.8378 20.6748 21.742 20.1363 21.538 20.0613C21.334 19.987 21.1855 19.9503 21.0363 20.1738C20.8877 20.3958 20.461 20.8983 20.3312 21.0468C20.2007 21.196 20.071 21.214 19.8482 21.103C19.6255 20.9905 18.907 20.7558 18.0557 19.9968C17.3935 19.4058 16.9458 18.676 16.816 18.4525C16.6863 18.2298 16.8018 18.109 16.9135 17.998C17.014 17.8983 17.1362 17.7378 17.248 17.608C17.3597 17.4775 17.3965 17.3845 17.4708 17.2353C17.5458 17.0868 17.5082 16.957 17.452 16.8453C17.3965 16.7335 16.951 15.6363 16.765 15.19C16.5843 14.7558 16.4005 14.815 16.264 14.8075C16.1335 14.8015 15.985 14.8 15.8365 14.8C15.688 14.8 15.4465 14.8555 15.2425 15.079C15.0377 15.3018 14.4625 15.841 14.4625 16.9383C14.4625 18.0348 15.2605 19.0945 15.3723 19.2438C15.484 19.3923 16.9435 21.6438 19.1793 22.609C19.7118 22.8385 20.1265 22.9758 20.4497 23.0778C20.9837 23.248 21.4698 23.224 21.8538 23.1663C22.2812 23.1025 23.1723 22.627 23.3583 22.1065C23.5435 21.586 23.5435 21.1398 23.488 21.0468C23.4325 20.9538 23.284 20.8983 23.0605 20.7865H23.0613ZM18.9948 26.3388H18.9918C17.6638 26.339 16.3603 25.9821 15.2177 25.3053L14.9478 25.1448L12.1413 25.8813L12.8905 23.1453L12.7143 22.8648C11.9719 21.683 11.579 20.3154 11.581 18.9198C11.5825 14.8323 14.908 11.5068 18.9977 11.5068C20.9777 11.5068 22.8393 12.2793 24.2388 13.6803C24.929 14.3677 25.4762 15.1852 25.8485 16.0855C26.2208 16.9857 26.4109 17.9508 26.4078 18.925C26.4062 23.0125 23.0807 26.3388 18.9948 26.3388ZM25.3038 12.616C24.4774 11.7842 23.4942 11.1247 22.4111 10.6756C21.328 10.2266 20.1665 9.99694 18.994 10C14.0785 10 10.0765 14.0013 10.075 18.919C10.0742 20.491 10.4845 22.0255 11.2652 23.3778L10 28L14.728 26.7595C16.0359 27.4721 17.5016 27.8455 18.991 27.8455H18.9948C23.9102 27.8455 27.9123 23.8443 27.9137 18.9258C27.9174 17.7537 27.6886 16.5926 27.2406 15.5096C26.7926 14.4265 26.1343 13.443 25.3038 12.616Z" fill="#313131"/>
</g>
<defs>
<clipPath id="clip0_4873_4695">
<rect width="18" height="18" fill="white" transform="translate(10 10)"/>
</clipPath>
</defs>
</svg>
